<svg width="25" height="24" viewBox="0 0 25 24" fill="none" xmlns="http://www.w3.org/2000/svg">
<g clip-path="url(#clip0_1_313)">
<path d="M23.812 10.5857L22.1752 8.94914C21.7867 8.56066 21.4683 7.79294 21.4683 7.24239V4.92789C21.4683 3.82689 20.5689 2.92746 19.4682 2.92687H17.1528C16.6029 2.92687 15.8343 2.60794 15.4457 2.21975L13.8092 0.583194C13.0316 -0.194418 11.7583 -0.194418 10.9807 0.583194L9.34418 2.22092C8.95534 2.60941 8.18588 2.92746 7.63713 2.92746H5.32264C4.2231 2.92746 3.3225 3.82689 3.3225 4.92789V7.24245C3.3225 7.79084 3.00421 8.56095 2.61567 8.9492L0.978821 10.5858C0.200622 11.3634 0.200622 12.6366 0.978821 13.4154L2.61567 15.052C3.00445 15.4405 3.3225 16.2103 3.3225 16.7587V19.0733C3.3225 20.1731 4.2231 21.0737 5.32264 21.0737H7.63719C8.18711 21.0737 8.9557 21.392 9.34424 21.7803L10.9808 23.4174C11.7584 24.1944 13.0316 24.1944 13.8092 23.4174L15.4458 21.7803C15.8346 21.3918 16.6029 21.0737 17.1528 21.0737H19.4683C20.569 21.0737 21.4684 20.1731 21.4684 19.0733V16.7587C21.4684 16.2079 21.787 15.4402 22.1752 15.052L23.8121 13.4154C24.589 12.6366 24.589 11.3633 23.812 10.5857ZM10.8074 16.5003L6.39457 12.087L7.80882 10.673L10.8077 13.6719L16.9809 7.50015L18.3948 8.9141L10.8074 16.5003Z" fill="#11B347"/>
</g>
<defs>
<clipPath id="clip0_1_313">
<rect width="24" height="24" fill="white" transform="translate(0.394928)"/>
</clipPath>
</defs>
</svg>
